<svg height="512" viewBox="0 0 512 512" width="512" xmlns="http://www.w3.org/2000/svg"><path d="m255.96701 7.9999992c-14.42056 0-28.9134 3.1667198-39.84197 9.5105508l-146.722866 84.69541c-21.954611 12.67476-39.899208 43.75438-39.899208 69.08441v169.41924c0 25.33653 17.944597 56.42568 39.899208 69.0939l146.722866 84.71437c10.92857 6.32444 25.42141 9.48212 39.84197 9.48212 14.48556 0 28.97013-3.15768 39.89917-9.48212l146.7224-84.71437c21.92213-12.66822 39.90845-43.75737 39.90845-69.0939v-169.41924c0-25.33003-17.98632-56.40965-39.90845-69.08441l-146.7224-84.69541c-10.92904-6.343831-25.41361-9.5105508-39.89917-9.5105508zm99.18879 144.3733908c4.22726 0 8.45019 1.60138 11.65118 4.81215l17.84669 17.82761c6.402 6.42793 6.402 16.93826 0 23.3597l-156.43218 156.45108c-6.46654 6.41499-16.93871 6.41499-23.34074 0l-68.94211-68.91386c-6.40202-6.41497-5.044-18.2773 0-23.34073l17.85586-17.82761c6.40202-6.42793 16.9387-6.42793 23.34073 0l27.74552 27.72655c6.40203 6.415 16.8742 6.415 23.34074 0l115.23553-115.28274c3.23307-3.21072 7.47102-4.81215 11.69878-4.81215z"/></svg>